<mxfile host="65bd71144e" scale="1" border="30">
    <diagram id="Ro1eKIlr-US6zKG8tLX-" name="Page-1">
        <mxGraphModel dx="2372" dy="888" grid="1" gridSize="10" guides="1" tooltips="1" connect="1" arrows="1" fold="1" page="1" pageScale="1" pageWidth="850" pageHeight="1100" background="#FFFFFF" math="0" shadow="0">
            <root>
                <mxCell id="0"/>
                <mxCell id="1" parent="0"/>
                <mxCell id="43" value="a" style="rounded=0;whiteSpace=wrap;html=1;fontSize=13;fillColor=#EBFFE0;gradientColor=none;" parent="1" vertex="1">
                    <mxGeometry x="-322" y="80" width="1442" height="320" as="geometry"/>
                </mxCell>
                <mxCell id="15" style="edgeStyle=none;html=1;entryX=0;entryY=0.5;entryDx=0;entryDy=0;entryPerimeter=0;fontSize=13;" parent="1" source="10" target="14" edge="1">
                    <mxGeometry relative="1" as="geometry"/>
                </mxCell>
                <mxCell id="16" value="実行結果&lt;br&gt;イベントを取得" style="edgeLabel;html=1;align=center;verticalAlign=middle;resizable=0;points=[];fontSize=13;" parent="15" vertex="1" connectable="0">
                    <mxGeometry x="0.2271" y="2" relative="1" as="geometry">
                        <mxPoint x="-14" y="23" as="offset"/>
                    </mxGeometry>
                </mxCell>
                <mxCell id="10" value="&lt;font style=&quot;font-size: 13px;&quot;&gt;AWS Step Functions StateMachine&lt;/font&gt;" style="points=[[0,0],[0.25,0],[0.5,0],[0.75,0],[1,0],[1,0.25],[1,0.5],[1,0.75],[1,1],[0.75,1],[0.5,1],[0.25,1],[0,1],[0,0.75],[0,0.5],[0,0.25]];outlineConnect=0;gradientColor=none;html=1;whiteSpace=wrap;fontSize=12;fontStyle=0;container=1;pointerEvents=0;collapsible=0;recursiveResize=0;shape=mxgraph.aws4.group;grIcon=mxgraph.aws4.group_aws_step_functions_workflow;strokeColor=#CD2264;fillColor=none;verticalAlign=top;align=left;spacingLeft=30;fontColor=#CD2264;dashed=0;" parent="1" vertex="1">
                    <mxGeometry x="-80" y="120" width="360" height="240" as="geometry"/>
                </mxCell>
                <mxCell id="2" value="&lt;font style=&quot;font-size: 13px;&quot;&gt;AWS Batch&lt;/font&gt;" style="sketch=0;points=[[0,0,0],[0.25,0,0],[0.5,0,0],[0.75,0,0],[1,0,0],[0,1,0],[0.25,1,0],[0.5,1,0],[0.75,1,0],[1,1,0],[0,0.25,0],[0,0.5,0],[0,0.75,0],[1,0.25,0],[1,0.5,0],[1,0.75,0]];outlineConnect=0;fontColor=#232F3E;gradientColor=#F78E04;gradientDirection=north;fillColor=#D05C17;strokeColor=#ffffff;dashed=0;verticalLabelPosition=bottom;verticalAlign=top;align=center;html=1;fontSize=12;fontStyle=0;aspect=fixed;shape=mxgraph.aws4.resourceIcon;resIcon=mxgraph.aws4.batch;" parent="10" vertex="1">
                    <mxGeometry x="40" y="80" width="80" height="80" as="geometry"/>
                </mxCell>
                <mxCell id="3" value="&lt;font style=&quot;font-size: 13px;&quot;&gt;Athena&lt;/font&gt;" style="sketch=0;points=[[0,0,0],[0.25,0,0],[0.5,0,0],[0.75,0,0],[1,0,0],[0,1,0],[0.25,1,0],[0.5,1,0],[0.75,1,0],[1,1,0],[0,0.25,0],[0,0.5,0],[0,0.75,0],[1,0.25,0],[1,0.5,0],[1,0.75,0]];outlineConnect=0;fontColor=#232F3E;gradientColor=#945DF2;gradientDirection=north;fillColor=#5A30B5;strokeColor=#ffffff;dashed=0;verticalLabelPosition=bottom;verticalAlign=top;align=center;html=1;fontSize=12;fontStyle=0;aspect=fixed;shape=mxgraph.aws4.resourceIcon;resIcon=mxgraph.aws4.athena;" parent="10" vertex="1">
                    <mxGeometry x="240" y="80" width="80" height="80" as="geometry"/>
                </mxCell>
                <mxCell id="4" style="edgeStyle=none;html=1;entryX=0;entryY=0.5;entryDx=0;entryDy=0;entryPerimeter=0;" parent="10" source="2" target="3" edge="1">
                    <mxGeometry relative="1" as="geometry"/>
                </mxCell>
                <mxCell id="5" value="&lt;font style=&quot;font-size: 13px;&quot;&gt;dbt による更新&lt;/font&gt;" style="edgeLabel;html=1;align=center;verticalAlign=middle;resizable=0;points=[];fontSize=20;" parent="4" vertex="1" connectable="0">
                    <mxGeometry x="0.2437" y="1" relative="1" as="geometry">
                        <mxPoint x="-14" y="21" as="offset"/>
                    </mxGeometry>
                </mxCell>
                <mxCell id="12" style="edgeStyle=none;html=1;fontSize=13;" parent="1" source="11" target="10" edge="1">
                    <mxGeometry relative="1" as="geometry"/>
                </mxCell>
                <mxCell id="13" value="1日1回自動実行" style="edgeLabel;html=1;align=center;verticalAlign=middle;resizable=0;points=[];fontSize=13;" parent="12" vertex="1" connectable="0">
                    <mxGeometry x="-0.5517" y="-1" relative="1" as="geometry">
                        <mxPoint x="34" y="20" as="offset"/>
                    </mxGeometry>
                </mxCell>
                <mxCell id="11" value="&lt;font style=&quot;font-size: 13px;&quot;&gt;EventBridge&lt;br&gt;Scheduler&lt;/font&gt;" style="sketch=0;points=[[0,0,0],[0.25,0,0],[0.5,0,0],[0.75,0,0],[1,0,0],[0,1,0],[0.25,1,0],[0.5,1,0],[0.75,1,0],[1,1,0],[0,0.25,0],[0,0.5,0],[0,0.75,0],[1,0.25,0],[1,0.5,0],[1,0.75,0]];outlineConnect=0;fontColor=#232F3E;gradientColor=#FF4F8B;gradientDirection=north;fillColor=#BC1356;strokeColor=#ffffff;dashed=0;verticalLabelPosition=bottom;verticalAlign=top;align=center;html=1;fontSize=12;fontStyle=0;aspect=fixed;shape=mxgraph.aws4.resourceIcon;resIcon=mxgraph.aws4.eventbridge;" parent="1" vertex="1">
                    <mxGeometry x="-280" y="200" width="78" height="78" as="geometry"/>
                </mxCell>
                <mxCell id="18" style="edgeStyle=none;html=1;entryX=0;entryY=0.5;entryDx=0;entryDy=0;entryPerimeter=0;fontSize=13;" parent="1" source="14" target="17" edge="1">
                    <mxGeometry relative="1" as="geometry"/>
                </mxCell>
                <mxCell id="19" value="イベントを送信" style="edgeLabel;html=1;align=center;verticalAlign=middle;resizable=0;points=[];fontSize=13;" parent="18" vertex="1" connectable="0">
                    <mxGeometry x="-0.2804" y="-1" relative="1" as="geometry">
                        <mxPoint x="18" y="20" as="offset"/>
                    </mxGeometry>
                </mxCell>
                <mxCell id="14" value="&lt;font style=&quot;font-size: 13px;&quot;&gt;EventBridge&lt;br&gt;Rule&lt;/font&gt;" style="sketch=0;points=[[0,0,0],[0.25,0,0],[0.5,0,0],[0.75,0,0],[1,0,0],[0,1,0],[0.25,1,0],[0.5,1,0],[0.75,1,0],[1,1,0],[0,0.25,0],[0,0.5,0],[0,0.75,0],[1,0.25,0],[1,0.5,0],[1,0.75,0]];outlineConnect=0;fontColor=#232F3E;gradientColor=#FF4F8B;gradientDirection=north;fillColor=#BC1356;strokeColor=#ffffff;dashed=0;verticalLabelPosition=bottom;verticalAlign=top;align=center;html=1;fontSize=12;fontStyle=0;aspect=fixed;shape=mxgraph.aws4.resourceIcon;resIcon=mxgraph.aws4.eventbridge;" parent="1" vertex="1">
                    <mxGeometry x="400" y="200" width="78" height="78" as="geometry"/>
                </mxCell>
                <mxCell id="21" style="edgeStyle=none;html=1;fontSize=13;" parent="1" source="17" target="20" edge="1">
                    <mxGeometry relative="1" as="geometry"/>
                </mxCell>
                <mxCell id="22" value="イベントを送信" style="edgeLabel;html=1;align=center;verticalAlign=middle;resizable=0;points=[];fontSize=13;" parent="21" vertex="1" connectable="0">
                    <mxGeometry x="-0.2849" relative="1" as="geometry">
                        <mxPoint x="19" y="21" as="offset"/>
                    </mxGeometry>
                </mxCell>
                <mxCell id="17" value="&lt;font style=&quot;font-size: 13px;&quot;&gt;SNS Topic&lt;/font&gt;" style="sketch=0;points=[[0,0,0],[0.25,0,0],[0.5,0,0],[0.75,0,0],[1,0,0],[0,1,0],[0.25,1,0],[0.5,1,0],[0.75,1,0],[1,1,0],[0,0.25,0],[0,0.5,0],[0,0.75,0],[1,0.25,0],[1,0.5,0],[1,0.75,0]];outlineConnect=0;fontColor=#232F3E;gradientColor=#FF4F8B;gradientDirection=north;fillColor=#BC1356;strokeColor=#ffffff;dashed=0;verticalLabelPosition=bottom;verticalAlign=top;align=center;html=1;fontSize=12;fontStyle=0;aspect=fixed;shape=mxgraph.aws4.resourceIcon;resIcon=mxgraph.aws4.sns;" parent="1" vertex="1">
                    <mxGeometry x="600" y="200" width="78" height="78" as="geometry"/>
                </mxCell>
                <mxCell id="24" style="edgeStyle=none;html=1;entryX=0;entryY=0.5;entryDx=0;entryDy=0;fontSize=13;" parent="1" source="20" target="23" edge="1">
                    <mxGeometry relative="1" as="geometry"/>
                </mxCell>
                <mxCell id="25" value="実行結果を通知" style="edgeLabel;html=1;align=center;verticalAlign=middle;resizable=0;points=[];fontSize=13;" parent="24" vertex="1" connectable="0">
                    <mxGeometry x="-0.1943" y="-1" relative="1" as="geometry">
                        <mxPoint x="13" y="19" as="offset"/>
                    </mxGeometry>
                </mxCell>
                <mxCell id="20" value="&lt;font style=&quot;font-size: 13px;&quot;&gt;Lambda&lt;/font&gt;" style="sketch=0;points=[[0,0,0],[0.25,0,0],[0.5,0,0],[0.75,0,0],[1,0,0],[0,1,0],[0.25,1,0],[0.5,1,0],[0.75,1,0],[1,1,0],[0,0.25,0],[0,0.5,0],[0,0.75,0],[1,0.25,0],[1,0.5,0],[1,0.75,0]];outlineConnect=0;fontColor=#232F3E;gradientColor=#F78E04;gradientDirection=north;fillColor=#D05C17;strokeColor=#ffffff;dashed=0;verticalLabelPosition=bottom;verticalAlign=top;align=center;html=1;fontSize=12;fontStyle=0;aspect=fixed;shape=mxgraph.aws4.resourceIcon;resIcon=mxgraph.aws4.lambda;" parent="1" vertex="1">
                    <mxGeometry x="800" y="200" width="78" height="78" as="geometry"/>
                </mxCell>
                <mxCell id="23" value="Slack" style="shape=image;verticalLabelPosition=bottom;labelBackgroundColor=none;verticalAlign=top;aspect=fixed;imageAspect=0;image=data:image/png,iVBORw0KGgoAAAANSUhEUgAAAH8AAAB/CAYAAADGvR0TAAAABmJLR0QA/wD/AP+gvaeTAAALiUlEQVR42u2de2xb5RXA3VLWd4HSDhaaVwmkkNzrZMZJs7ZrqFinbWJ/bAs0TsumPfoHomxIVbtR38x/TIi9tE2DjU5DCBDSyBCp41dKBRGN7bKqBDpB6VqahJW2Sfy6dkgfYa13Psc3SRPb8bXvd5/nSEeOlMT33PO73/ucc00mjUlTMF5lDcS+2hCM24iSny0B/k45baj37Cs3+/ZtNHvbHzb7uO1md/v9rM9ebUqa5plQpJWG3pi5MRD7U0OAHwBNZtQg328NxP/YFIwyNGyo6XZUmb3cr1kvdxI0mUXPMZ7251jvvvVIrUix+KNlAP1lgHs1K/TZerXBH3/R+nakVJJW7v3FatbDPQtgx3NAn6XwoHSaPY67kWIB0uiPbgSQIyKgz9QI6JbiWjtnBpCDYqDP0M/MPvt3kKaYbp6M5wF+vAjwgo43BuLbCrHB7LVvBXhjRYAX9Brr4x5HqnmINZj4CkC7LAF4QS81+uOixmDmoGMdQItJAF7QqzAh/DbSzT2TXwmwhiQEP6F+/kJdT+zmfGyo6HEsAlinJAQvaIKsEpBytnE+wP9OcvBT+nQ+NgCk3RTAT6jP/hJSziAb/KES0kVThH/RcnjsSzkneD2OZQApTA0+6f7djlqkPbPVB2M/pQg+3f3HH8s5yfNwD1EEn2797U8h7Zkz/AD/Fm34jX7+0Bxd/iu04TNe7kOkPV2SyXmUu3xBx3LC93D91Fs+aF2n42aELrT6fyVulQF8Sjf28rdkfgBN8wDMJTngm7u5GqQujPeHR++VCz65Vpa9+5VygE91/d32B5C60PLf5itlg9/LWzLu4b/hKJELPuttfxCpp6XKm1wIYK4hfKNu6wbi5xC+YQ9z+L8jfKO2/N7ogwjfoNLSkbwB4JxA+MY92Pkuwjf2Tl8nwjeoNPeMLIPz9+MI36CSPt49ivANKk3Bs4tJFC7CN/ISEGL6Gv0xP8I3sKw/MnqPNcj/nJzJw6rgIwA5ivBRJBGEj/ARPsJH+Agf4SN8hI/wjQ3fcix6Uzrebgucv7cordZgbLMlmFhHtoSNBt/iciypc9nvYru5TXU+e3O913Gv5dDemyTeaYtXNQRiDgDeJ1ecXQFK8veDoHubguE79AofgK+C//8ZZP2+BZ+fZ/n+PkgL+yUpJlH4ztrRz26H1vVXcOjnKoaeMS2L5OXlm5ipBfjswd1LGQ9nh4SPuIjrQDGJ9r/UOp+8TRT4+44kNoADhzUGfaaeXX+E/7LW4TNux1r4nw+KuF6YDAv5tXh/vA0cd0Xj4AUdha3grVqFb+7e1wB/H5LgmlcgR7A158XSpVAu6wS8oIn7AtFarcFP2/OphNcdh2Fjc/YxPsCHdAZe0NOWY+eXaAV+c49jAUzqjlG49jB70PHFWReE6JnndApeqM7xpFbgMz5uJ7U8QV/7MxmWc5qb1YtVnpR9UTv8dFmYTylef7zWa58qWplexyd1r37+x2qHTwo3Uc8S9nLt0+Dz7xsCfiDmUjt8mJQ9T//69ncnt2zlSpJUw8xf7fChVZ6WwYZr1c49y2XNjVeDNr4TWaHqbt/LXZSlRgDUGjSlDmkMBJ8cBKkVPinXIp8N9i2wxItuMhJ8ay+/NtspmVyOJ+XalX4AUzakl3mGgU/yAXJ0ubwsXS7s1ysNP2VDKjlC/2t8QYdznp557cdlcPw4WcsrDH/KBjlq4KljnR9/MTd87rfUHe/hDim+4phugyzVL9Uw3vtjOWvfk3FQhiKMjykN/zobLD2JVWT7U+fwB5t7kotyHqU5HPOh63+PouNjpOSbwvBn20AOPnTd6gPx7Xmdofvav06xxe1R+nApow3kyNMa4P+tU/hvQuGH+XlHz/i4VyVfWnm495s6nlisJPycNqw/EqvQQfjWTB2oPzy6WlTQKjgIWshRCR0fzra8kxH+3DZA92iFA5DzOgF/qqE3UdAbrtIg+iRw+jnGzVkUDiXL2wYTCX+mVRlDRu3OWmRZRGw8TAD/UYTT3yFAFQ4iFWXDhMAYmU6O6NcY9P8Qu0lxJ6lyF0ihZHIMKsLhZ0k0TktHyw0Kho8XZMN1MlEXN/4tiIL9W8qxULNebRG6YN8H6TduboHl3AIq6UqwDKzzchtYT/tv0juB09++RV7BdhKOY/czPvs3q7y7FiqQOCKJDXmlbZEDEqVVijStYoeFRq9jhVTfR1opmZSJVcnTtFBQUFBQUFBQUAwqQ7ftWDpQ0brukzKbRayeL9m5REob+iu3V5OflfDDeZdlyYizpirkZixKa6TLXBPvrlkp+U2ermpbAeAeGSyzvQbKgyYLVfIAULIhRn4Hf7PjZPUPl9OAfbajaTE4+aFwF/tKqIsNwWdShXox7GIPhbvMu0LO+pKCb/aYZeeN4Myd4NShYoAXA79AG8LwP3sHKn6wSAroSYdpfsTJtIBjB1QKPJtegYd1/wVvvahDLVN/pa18sNx2XCrohcCXwIb3zqx9pKwY8MRxESd7WGPQZ+qFiItpys/pa2wN4LhhqcGLgS+hDUP/LW2zFgI+5GSroXvv1zh4QS/DvbTO3doogc8XPgUbQoPlOyrFgCeTJxg3T+sE/IS62PGQ03x/lknVNxbS6OrFwKdoQ9+HNS1fyGuMh3fqgrPe1BX4tJKJasTLrpl10wOltidogs8HPk0bPilr3ZVnd79Nj+Cn1PzCrKVUqntUED51G8ptI3MtA5P7LTfqrrufrf+LHmCYqRZX1vZ92uDngi+HDdD6c0bwRlzmrToHL3T/f5i86cHS1teVhi+PDa3/zAUfHPOsEeCTPYspxxe5cycJfHlsiM4B/yODwE8Ou5m1wlibVBK+nDaMrG5ZlgP+qFHgh7qYzSZyOKI0fDltOHPHwxlDuSPexhVGAZ8e91tNxBmyOX6N7a5MjicPhdIP4EhHzTJDwYclrYl0g3I5PtvxqxrgG63bH3Gzm4TJVkwGx0eyOV1F8E8YBT7fxVYK8F+j7XRYx7+qevgu858NAd/Ffjzd+TuoO768zaZ6+AeYB4wx3jO/n7xpsu1Jtj8pOn041xJLLfCTPc0LwDmndL+962ZrZwJ4nJrTS1sfzbW5ohb4qSXfRNSOjrt85vlZN02OPEn0CwWHv0vCsbQCP3Wkm4qD0yX8EZjXZH4BFQl7kjJmj3zXxyXbSuc6RlUTfF0Hc7jqmnPeOAl7kugByDuESm3whTCuSBd7RifwL6U2dfKRdA/QV0xXn0+LVzN8IgmXZVW4i+nROPhz4QNsY4Gh220XxMTLkbBpEo4l5lpqhT89dFuDvcAYDF1PxzrrRL1f8Dohy0ASBEHOwsmRaKadO9AOWCq25VrOaRX+ZLBJT8WiiIv9HvQEL4Njh1UM/A34fHTEU3M7lXQtcgpHVKr0Ky3Az5TBM9xZe6da0rV4N3OLSYuiRfgoCB8F4aMgfBSEj6Ix+CRho5CZdthde0+0w4Kl0LQMnxQzKHKNPQqp0G44K/9J4vV1tyJVY8G/7kEgu2skIhjpGg/+ZLgU2YBBwkaEn1ImHnHWfg0pGxL+xDAQddaySNqY8EmGTD+uCgwKPz0HeAppGxV+qk5elhg6hK97+Mmwk9mDxI0K32UOIHGjwu9irw4dZJcidWPCT4Y85ruRulHhzxU/byRRQ4EIOYszpEqioKQdr4ICEUTkKs5A6vQj9WmidIGINPwTOOFTBr6iBSJS8GUozgDbvL1Ie/akT9ECESn4MhRnAPi7kfYMUbpABBEZijOMFfX6E523fsUKRAhCuTjDr5ByFlGyQMRk66dUnIEkemJY11xrfoUKREwXCsUZRq8rc46SXZQoEDF7x0+i4gwulscwrsJ6ANkKRGQSCYoznCJx/UizAJGzQETWOUBhxRlGoedwkDRupCjBMpB2gYi5JI/iDAnQLnhIfkTl1aYoE0KjQIRYEYozkG495KxerkU//h9c/aaEqJm+KgAAAABJRU5ErkJggg==;fontSize=13;" parent="1" vertex="1">
                    <mxGeometry x="1000" y="200" width="80" height="80" as="geometry"/>
                </mxCell>
                <mxCell id="38" style="edgeStyle=none;html=1;fontSize=20;" parent="1" source="30" target="31" edge="1">
                    <mxGeometry relative="1" as="geometry"/>
                </mxCell>
                <mxCell id="51" value="CodePipelineが&lt;br&gt;起動" style="edgeLabel;html=1;align=center;verticalAlign=middle;resizable=0;points=[];fontSize=13;" parent="38" vertex="1" connectable="0">
                    <mxGeometry x="-0.5332" y="1" relative="1" as="geometry">
                        <mxPoint x="27" y="24" as="offset"/>
                    </mxGeometry>
                </mxCell>
                <mxCell id="30" value="Github" style="shape=image;verticalLabelPosition=bottom;labelBackgroundColor=default;verticalAlign=top;aspect=fixed;imageAspect=0;image=data:image/png,iVBORw0KGgoAAAANSUhEUgAAAPAAAADwCAYAAAA+VemSAAAACXBIWXMAADddAAA3XQEZgEZdAAAAAXNSR0IArs4c6QAAAARnQU1BAACxjwv8YQUAABiOSURBVHgB7Z2/cxtHlsffG0BnytqqxdpeexWZqiXvSO+WCGWXCcw2s5ztRaKyyyRll4nMLpP0F4jKLhMZXiQou8xDl21qTboMZ7pbn01XnS3aBKavXxOwYRk/Zgbzo9/M91NFE6IJkQL62+9Hv36PCAAAAAAAAAAAAAAAAAAAAIBfwQRUsrbWXh40qGWYWmxoefR1M/Z4EszUk89RRCfcsB+GThoDOnn+POwRUAcE7CHLy+3WhUtOiG1DIlCzYYXZYvmzFSzZx5QHTCf27+7ZRyd2KwiJg2/tzw2DgHpHn4QhAe+AgEtGxNq4SB0OrGAjc53PRbtMfiIi7lkzfiDCvmA/YLnLBQIumNU/tUWgHbGq1tp1PBZrLOwC6hkRdsDP7OMuLHWxQMA5I7Fqv0E3xLraV7uTm/vrC+dueJcD3rexdRcWOl8g4BxY+XO7Q4PofSa+od3CLsq5hTZ71Aj2jz8OuwQyBQLOiJFobXy4VXkrmxJ28TN1TcCPIeZsgIAXwIk2iq7bl/EORJuMkZgbEe/AzU4PBJwQyRo3L9GWjWnft3/sEMiC0MbMD8++o71eLzwhEBsIOCYuexxFN+Ei54hNgNkFuQerHB8IeA7nsa25R7C2RdOlBu8gVp4NBDwFCNcPXKwc8I49X94l8Csg4FewrrLEt/fqfvzjGxDyZCDgIWJxeWAeQbh+AyH/ktoLGK6yTlyBSINv1T1Grq2AXYkjm0cE4aqGmXbrnLWunYDdOe7r0W0yvE2gOrDZ7n8fPKzbOXKDasQf19s3mhfME/tu3yBQMbjTuEB/ffOdy99+/fcXtbkRVQsLDHe5XtTJra68BV5dv3o7Cug/7MM1AnWhHTFtvfH7yz98/dWL/6IKU1kLDKsLhnSbhm9V1RpX0gL/49rVm4OA9ghWF9i8pWG6UdXYuFIW2GWYL0b33PU+AF4lMA/63wU7VcpUV0bAcluIIvMElVRgFlIA0jC8WRWXuhIutCSqrHB37cM/EACzaVUpwaVewCvrV+/bfXXbPlwiAOIha+Uvb7zzTuvrv//3f5Ji1LrQwyzzE/uwTQCkJ7RZ6g+0utQqBezGirB5ingXZIHmuDggZcjtoX5gPoR4QVbIWrLe3IdSakvKUBUDS7LKvtpSVYV4F2TNkrXEf7XJrW81JbfUCHhl7eo9Yv53AiBf/vLG2++QTW49IwWoEPBQvNsEQCFwR4uIvRewOyZi/jcCoFB0iNhrAa++t/HIvpD/SgCUAnfefPsPy1bE++Qp3gpYxGsMbREA5dL2WcReCnhYXQXLC3zBWxF7J+BhwgoxL/CNto8xsVcCRrYZ+I1/iS1vBAzxAh34JWIvBCwdNAzzAwJABdx5663Lvf/96sUBlUzplxnOx3aaDwkAXZxwwJtHn4Sltukp9TKD3CqSLhoEgD5asnbdGi6R0iyw9K+6cBG3ioBu5Cri2Uu+VlafrdIscPN1TAIE+pE13Lzo2heXQilJLJdxRqEGqA5rZWWmC3ehh+M8nxIAVaPBm0WPOy1UwGiFAyrOSdPwtSJb8zSpQIajTpapTNim/w3/lHAwbFo2kGkR0MfwvTT2s30PT1imMJBZpvJoDdf4JhVEYRbYj0or7h4fhr96cd1EhyVq21dDPq6zMW14CZ7hRMqhFeozK9jwgqFwkqVbWbMhGpcdovFdu84KKUwqRMDDFrBfUMnY3frW0fNwN873SoFJFNFWQOZ9iLkkxMIS75mIHvdPKYx7VLOyviEC7lCZFBQP5y5gn857+y/5d2nO687HttAd626/D3e7CLjLAT0++4720rxfK+vtOzY4uk8lUtT5cO4CHt7t9WDYGO9bt2ahtqFuM1qiG9aU34NVzhhrbY3hx2xo7/j5YpZruW1Doh/MN1Q2gXlw/MlHdylHchWwT0dGSdznOKyutbcg5AyQ2Dbih9ZFfpCltfLCjRZydqVzrcTiQXkVKq/SIOpShshmcHR4cEU2BnGXCCTjPCm10/+er1iLu525q2nYi+t+ogHx3CgnchOwZJ29sU48OWOZBRBycph5txnxtVyE+zNd8gBXavk65RZC5uJC+5J1HmGIH35+GBYSh9tjjG0b+9xGsmsS3LWvy86iMW4cXBz8o12DnrwPTcNX8jAiuRRy9AObATTkE10qCLEqdgPbHTBtGzI3KSPscUpPzj/tjntiX9ovXeFCYB8PqMcNOmkMyFmy01M6mWXVxJ1bWqLWoEEt+1y3uO3zl41xHy1metctejbtzBa/HAdFfDfLHMQ8emF4svLeRo88mV6ZV4FH5hbYHrlsmcif2FfggK+VcfFahmXZc+T7sUMJiQutUO2bEloxHdjn9aYVLBSBy7pfomV7Hr7M7ISwIV8mY2KLQryfwUvaLuO6nX39HzBZb8gT7GvxgfUE9yhDshfw+sYXvmVmjw8PSu084txqm7F+9etiVe1/uvZDEi5h2d0d4vJT5Vpgs7yGrk+y1pIPsMdCt4pwl6fhw3nwOHmcDWfqQnuVuBph3U4qmZFb3Q/oibWsz4KAwrRFCj4w/L27NBaanLdGcsc2Url20C/J6o4jHkzpPaPGGEtobVNGZPbv8/em0eT6Z1B9fEumDjnpv+QrWW1umR0jDQI/ixps7NYjUEtOl8hHD6eV5bFSJgKWnc7XOUYuYwtqiWSiyUeMuZ1VM7xMBCzWlwDwEE+La1pZaWZhAftsfQHwFdFMFlZ4YQHD+gKQjjNePBZeSMCwvgCkh8ncXPSiw0IChvUFYCEWzkinFrDz340H9y3nYHCpoNZ4f1/bZqQXscKpBTxoUEfDZfaA6bcEaoncSCL/WcgKp3ehIx3us6H4hfegWlz4Tke3FDbpb62lErDcstHSSobhQteWqKljjYqWXPupFKQSMGd4zzVv5MXJs6UJ8JfhFUgdDNJ5tIkFPDx8vkGKaP5G0RsJssOYDdJDJ42hSSzgPusSryPyP1sOcoB1ve9pklmJBexTh4PYGHOdQK1YXW1n1xKoINIksxIJWObOKO2D3EEcXC9MU5/XlSaZlUjAHOhJXr3KhUsKXX+QHta5Vs0g2TpN5kIrqLyaivRuArXAFXAYnYnLpCc8sQWs2H12d0IbEe0QqAVykV8a7ZNOWknc6NgC1uo+O/Ea3iyrNSsoB9eD2rDKTTuJGx3fhVbqPkcDvgvx1hPpBkqejFhJQhI3OpaAJSWv0n1m3vn8s2wbaQNd9F/jDxTOrIrtRscSsLmgL4Mrb9rxp24HBjVG4mGjMR6OWXwUz4VWWAghcS8BQM6V7sqIF9JETM3NFfDwTmWHNGFdZ8S9YJzBa7StzJWOVXw0V8CNH3SJV96k/vf0gAAYQ1zpiPguKaJxcb724rjQHdKEPTrQOnMI5MtwMmCX9NCZ9w1zBcysJ/4V61vkDFqgEEVnw3G0N1PA6krSlB7cg+IYjjvtkgas9ubFwTMF3DzVI15YXxAbRRv9vGYUs13oQFH8C+sLYiJWWE1GerCIgBWd/zYUlsyB8jCGH5MOOrP+52wBq2kKxvs49wVJ6C/pOGpkmt3Xa6qAhwksFV0s2BDqnUEihrODu+Q587qqThWwpgTW2SkEDNLA+6SAWQUd011oPe5zF4UbIA1NJZ4bz7gJOFXAiq4PqthFgX9I3kRDNpqZpsbBUwU8L3j2hgaFBEBq+Bl5zqz5Xupd6OOPXWUNAOkI/E9kzZrvNV3AKjLQ3CUAFuFH/z24WZnoiQJ2Xe0VYP9hBwTAApxd0lGRtbRE8QVsGkrOf/X1OgKe4VrQKlhHZ1NC2okC5oaauao9AmBBNKyjIEhigY2S4d0NwvkvWBgm/pI8Z5ompwlYhQvd7MMCg8WJyH9DME2TwZQvqhDw6SksMFgcZv/XUcD024lfn/RFe3D8LikAJZQgE4wKC7w86euJB3wDUDU4UODJsYnvQrPSKYQAVBVOEgMDAHQwOQZmHUksAOqCoSQWWMkxEgBZoKTuoXoudJzZMQBUGdUCnlbgDUBdQBIL1B4tlYeTUC3gfhPHXWBxtFQeTkK1gM0ALjRYHC2Vh5NQLeBpV6wASITiY9PJAlZQ3C1oufYIvGeZ/GeiJieXUioo7haYSK3rAzxCQRKLkwhYC9YC/44AWAAt/d+mMa2UUokFVtK7GniLlv5vhrg36evTSil1xMBzBj8BMBc1I4QmM+U6of89gkZcuIREFkgPsw4vjnly+6iJAtbQI2gM1TsoKBctJxmRoW8nfX2yBVYSAwtRBAGDheiQAqZpcpqAe6QE6wJdJwBSsLLW7pASkrnQkSIX2lAbiSyQCkUJLJNEwBeMrpGdzd/AjQZp0OO9TSuumijg0yVd/ZbNgG4QAElhHfGvcPRJONGoThSwloFPIxAHg6S4+FfPPeCpBnVqKaWWaiwH4mCQELu+FXltPDWknSpgNqxq9m7zIm0RADEJyLxPSpg1BzuY8SRViSxS9IaAchH32SgaXjArnJ0l4B7porP6J903S0AxcGBukiYalNyFHrxGXVKGMchGgxgYPdlnof9/KQQsmWgtnTl+wpjbSGaBWVgvbUub+zxrCufsC/1GnRVuNV+nOwTANCJzjxRhaHYyeY6AdWWiBTbK4htQGNqsr4NnJ5PntdTpkjLkDZI3igB4FWXW1xHM1uBMAfeXtB0lnWMicx+xMBhHpfWl2QksYaaAh4ksjSJGLAx+iUbra7U3K4ElzO1KaQw/I43YjPTaWnuZQO1ZWbt6T6P1jaO9OG1lu6STVp/NIwK1xm3izNukk+68b5grYI0FHWN0VtbbcKVrzIDNU1LK4GUGAnZxsF4rbDH3UGJZT1bWr97X6Dqfw9158a8QbzKD1jj4nJZNYDxBVrperK5fvW1FoNn72o/zTXFHq3RJMbILNy+aJwRqgXhcRm/c6+AgnuaYYrLy3sY3ijoYTCYwD44/+egugcoiSSuJe/W6zuf1z0eHB1fifG/s4WY2pf2YtBPxnZX3ruo7DwSxqIJ4HczduN8aW8BsaI+qgOFtiLh6VEa8FhNQbGMZ24UWKuFGj4A7XRncKYNNVFZBvEncZyHRfOBKuNEjxJ1e3/gQ1Vq6+eN6+4Yx1bC8jgTus5BIwJVxo3+mLW4XRKwTKZFksqcLVfEKKZn7LCRyoYXV9Y0vKrPbjcNm+/jTj3YIeI9suMMy2Q5ViKTus5DIAguVcqPHkeTW+gassedIgUY/MB9SxcTrMJzYgCQWcH+JHlB16did/Qtkqf1j5c/tjmywhvhBlVzmcRopCqYSu9CCvJBUxR1wDNeLN+Cdo0/CXQKl4Y6HAnPPmKo37uf948MwcVfVxBbYkcLUa0PifBOZRxLzo0VP8YhwV9/beCQeUfXFS2J+U3m2qSywkO+ZMHdlnEQQ/NwNxETUElHZX3jD/qlDBTOyyI0BdZ8/D3sEckFcZRq47hkdqglpklcjmpSWiB/azG2msaL8QxqGN+cJxLlV8gbbn19URtz9HGuR+/aXtJZhNzK8//lhWLVjtVKQm2LN1yO5PXTDird+Vz8X8GhTW+Dltn3RfzRfZGqFmXeOPw23kzxldc26twUKeRxnlZm6JuDHxx+HXQKxcUdBDbphN0WZadWhmiJr6OwlX4tz93fK89OzstbeztgKd48PDzYpIbKZNH6gbXuof5vKQqZYGOpywHKPM5w2kLmuOCv7G2rTILKC5Y79EposkNgs3j36NLxFKVlIwM4K/2C+oSxZoKBCrLEJzH0fjhlkZ3UTHgN+Jt0FpT1o2l1WIy7MaVDHRNEGBDudpuEri+RUFhKwsLre3jWU8TSEBUTs+a0UscpWxCbkIDgwTD3NwharurRErTOmNgc2wWjMhs0Yt+2qWq7qWW2WLGp93d9BCzIsa/uCsiYwD/rfBTtpFrfSq2V7/Zd8S4OY5QIBSykjRLoQi1pfoUEL8tVXL07e/P1lSYFn6yIZ/ufGBfrr7y5f/vKb/3nxPMlT5Xd6+63L+9bCycG494tM3G37Zv7L8XH4ghTwzVcvnr/x5uWL9hfvEEiFWN/PDsOFy5IXtsBCblZ4CDPtNiLeSbpbud5Ixjz12lLY5Fcz4msaz5ZX3tuQm0CJq4dANtZXSFeJ9QruF8mxOksqcdJc+3OZ4IHnVWMm+cbkC/1/4FvuKA0kQqxvVu95JgIW3CWHHAeCSzybRsTHfwsfGOKH5CW8d3wYqr0cIj3DjeGFkjB1wxUrRZSZUclMwK4BfJSvUEYiTtrjefCanBH7ZymahtS39Dl+7gpYugRiYZgfZ+lxZSZgQaxw3kJJ0+PZR0uRpRtVOjW43JIFoo2klYbzyFTAIpSIuAir0ln509X7SZ7gLAX70xIoSzeqbGCFY5LDRpepgIVhgX+X8kaa0snNlQT4k3Th6t1oghWeA+8dPc/+bnnmAhaaBbmrPDCPksTDvrjSbJI1LtPA0MOpTaloUvLKd+Qi4LyPlUa4ePhSlOgyhVtoEZeaPGpU1N2sbL+0ReH8jgpzEbBQRELLkcKVlqOl8ly+CrrPP9Ml8AvySFyNk5uAC3VXB8mvNFpLvF2GiKXTCFUU5cPg8yHgDyhHchOwIO5qQUUUnTR9q0oScZcqimzaqMz6GVn7ed8Lz1XAQlFFFCYy99MM8R6KeLOohRcEVV/gqofBZ4asp8FL2qacyV3ABbrSrebrlGoiu3gKDSfivJMw3K16pw6540yAZD0VcTU0dwELhWV+jbmdxgoLklg6Ogy35JZIpkK2RytSdSVW/vgw3KSKwxBwrlnnX/0oKpBiGsLz3SwuCIw6X1qLcjNpG1u7AfQion0ZBtc/rVcrHXfZn5KVulYL7ha5UadvK5vmh1lX2s21yfV+rutyuLCAhzvorny4hmxLrlWMfLTsrvfuL34i0ZdDyxOefUe9Ogn2VYI+9Uyhq8ofztsiU6GFQoVaYGFlrS39nJ9SnjSsu4o2r6WQd3MHnzED/uDzz4rtFV5IDDyOi4fzProZZNtwHoC52Li3aPEKhQtYcEc3+d4M6iStzgIgNcx7eVZbzaIUAQu53wyCFQYFIGu4/32xce84pQlYzocb+RZQdFbW26nOhQGIw2iWV5lJy9IELLhMr9SK5nYNzdyHKw1yw67dsi+mlCpgQSqTOM8ij4F5krQRHgDzYHsk6kNVXekCFlyngvwy06003SwBmIrNOOfRXSMNXghYyPNmkFz8t2eTH6a5sQTAL0gxAjdPFh6tkiVff/Wi+8ZblzmnkR1LMkXgjXfeab395uW/yfgVApnz1lt/aEVM1UweeiZewRsLPEIsca53iCO+Iy41rDFIglxw8U28QuGllHFZXb+6a4Wc7djSV3BHWAHvNAZU5TY3hVLFUkoRr9xUIw/xVsBCESIeY48D3s9LzKMkWtU3iqoJ2GfxCl4LWFhZa2/bnH2hVVVimY0M42Y+MIZCbtBJs0+901M6mXRoPxp0PWhQK4poOQioZZ+3zGTeHR94bTcIOXrYpQpTJQH7Ll7B+4tfEhNbEVORIh4OBreiMzfcDjcg6tsHzYvuTvPEZ/TlU3S+I5rop7/nlQdADXJU5GHM+yreJbEmUVYHSVBTPMw2T0OFgAUn4pIbsoM6wHe1iFdQI2Bh2JB9EyM8QOZI7zLDt7TNa1YlYEEaAjQjvob+wyArZC0x86Yv5ZFJUCdgQY5iGueWuNItWkEhhLKWtLb7VSlgQUR8/OnBNSS3QFqk4q//kjc1n82rFfCIn5JbiItBIvju54fhHe0dRNULWJDkFuJiEAcX7wZ8TVuyahqVELAgbtDZa3ytoGFqqZDqLALlwbx39pKvVWm8TaVacEufLfvpzupaO5TKrWFFFSiQvo+vuYRXxhVnVMLqjlMZCzyOHAcUM6wM+A+7Y8equMyvUtkhGMPM4pa1xl1Y4xoysroVFe6ISlrgcWCN60i1re44tRhDBWtcE2pidcepvAUeR6zx0eHBFRR/VA9XlPE9X6mTeIVaCXiEFH9kPsgblATLsLzNKhRlpKGWAhbErZZuC9zna6ip1ocr2rHClWHabuJlTamtgEccHYWh1FTLVTJUcilgeO1PQqE6C3dE7QU8YhQfQ8ieMkxQSZyr8dpfXtQiC52E4eLYtRnrLcN006ZHOgRK47zBoCSoaLeOMe48IOApjIS8stbuMNOWIbNwe1uOqm/Z+0sUNn+gDJDkFMkMoi6BqXjfVtYXpF3qgGnbWuTrac+RJfNdhwbyK+sbT+2nDiXl3E0W4T5EfBsPCDgFqdxrRZ0OF0W8FmLzNP4zOLSi3e+f0gO4ycmAgBdArPIZ052AzPuzrLLEcHJOSTVi5Z/adygw96d+g7W2xvBjNrQHa5seCDgjxOpYqyyN4M87v7sFSl/WeYGONjj3mjC17E52YvMJPRPRY2ttQ1hbAAAAAAAAAAAAAAAAAAAAAAAA4Jf8P8WdqoAaqCHmAAAAAElFTkSuQmCC;fontSize=13;" parent="1" vertex="1">
                    <mxGeometry x="-240" y="481" width="80" height="80" as="geometry"/>
                </mxCell>
                <mxCell id="40" style="edgeStyle=none;html=1;fontSize=20;" parent="1" source="31" target="33" edge="1">
                    <mxGeometry relative="1" as="geometry"/>
                </mxCell>
                <mxCell id="52" value="CodeBuildが&lt;br&gt;起動" style="edgeLabel;html=1;align=center;verticalAlign=middle;resizable=0;points=[];fontSize=13;" parent="40" vertex="1" connectable="0">
                    <mxGeometry x="0.2951" relative="1" as="geometry">
                        <mxPoint x="-21" y="24" as="offset"/>
                    </mxGeometry>
                </mxCell>
                <mxCell id="31" value="&lt;font style=&quot;font-size: 13px;&quot;&gt;CodePipeline&lt;/font&gt;" style="sketch=0;points=[[0,0,0],[0.25,0,0],[0.5,0,0],[0.75,0,0],[1,0,0],[0,1,0],[0.25,1,0],[0.5,1,0],[0.75,1,0],[1,1,0],[0,0.25,0],[0,0.5,0],[0,0.75,0],[1,0.25,0],[1,0.5,0],[1,0.75,0]];outlineConnect=0;fontColor=#232F3E;gradientColor=#4D72F3;gradientDirection=north;fillColor=#3334B9;strokeColor=#ffffff;dashed=0;verticalLabelPosition=bottom;verticalAlign=top;align=center;html=1;fontSize=12;fontStyle=0;aspect=fixed;shape=mxgraph.aws4.resourceIcon;resIcon=mxgraph.aws4.codepipeline;" parent="1" vertex="1">
                    <mxGeometry x="-40" y="481" width="78" height="78" as="geometry"/>
                </mxCell>
                <mxCell id="42" style="edgeStyle=none;html=1;fontSize=13;" parent="1" source="33" target="41" edge="1">
                    <mxGeometry relative="1" as="geometry"/>
                </mxCell>
                <mxCell id="53" value="必要なリソースを&lt;br&gt;Build" style="edgeLabel;html=1;align=center;verticalAlign=middle;resizable=0;points=[];fontSize=13;" parent="42" vertex="1" connectable="0">
                    <mxGeometry x="-0.4098" y="3" relative="1" as="geometry">
                        <mxPoint x="26" y="24" as="offset"/>
                    </mxGeometry>
                </mxCell>
                <mxCell id="33" value="&lt;font style=&quot;font-size: 13px;&quot;&gt;CodeBuild&lt;/font&gt;" style="sketch=0;points=[[0,0,0],[0.25,0,0],[0.5,0,0],[0.75,0,0],[1,0,0],[0,1,0],[0.25,1,0],[0.5,1,0],[0.75,1,0],[1,1,0],[0,0.25,0],[0,0.5,0],[0,0.75,0],[1,0.25,0],[1,0.5,0],[1,0.75,0]];outlineConnect=0;fontColor=#232F3E;gradientColor=#4D72F3;gradientDirection=north;fillColor=#3334B9;strokeColor=#ffffff;dashed=0;verticalLabelPosition=bottom;verticalAlign=top;align=center;html=1;fontSize=12;fontStyle=0;aspect=fixed;shape=mxgraph.aws4.resourceIcon;resIcon=mxgraph.aws4.codebuild;" parent="1" vertex="1">
                    <mxGeometry x="160" y="480" width="78" height="78" as="geometry"/>
                </mxCell>
                <mxCell id="45" style="edgeStyle=none;html=1;entryX=0.5;entryY=1;entryDx=0;entryDy=0;fontSize=13;" parent="1" source="41" target="43" edge="1">
                    <mxGeometry relative="1" as="geometry"/>
                </mxCell>
                <mxCell id="54" value="パイプライン環境を&lt;br&gt;Deploy or Update" style="edgeLabel;html=1;align=center;verticalAlign=middle;resizable=0;points=[];fontSize=13;" parent="45" vertex="1" connectable="0">
                    <mxGeometry x="0.515" y="-1" relative="1" as="geometry">
                        <mxPoint x="70" y="21" as="offset"/>
                    </mxGeometry>
                </mxCell>
                <mxCell id="41" value="&lt;font style=&quot;font-size: 13px;&quot;&gt;CloudFormation&lt;/font&gt;" style="sketch=0;points=[[0,0,0],[0.25,0,0],[0.5,0,0],[0.75,0,0],[1,0,0],[0,1,0],[0.25,1,0],[0.5,1,0],[0.75,1,0],[1,1,0],[0,0.25,0],[0,0.5,0],[0,0.75,0],[1,0.25,0],[1,0.5,0],[1,0.75,0]];points=[[0,0,0],[0.25,0,0],[0.5,0,0],[0.75,0,0],[1,0,0],[0,1,0],[0.25,1,0],[0.5,1,0],[0.75,1,0],[1,1,0],[0,0.25,0],[0,0.5,0],[0,0.75,0],[1,0.25,0],[1,0.5,0],[1,0.75,0]];outlineConnect=0;fontColor=#232F3E;gradientColor=#F34482;gradientDirection=north;fillColor=#BC1356;strokeColor=#ffffff;dashed=0;verticalLabelPosition=bottom;verticalAlign=top;align=center;html=1;fontSize=12;fontStyle=0;aspect=fixed;shape=mxgraph.aws4.resourceIcon;resIcon=mxgraph.aws4.cloudformation;" parent="1" vertex="1">
                    <mxGeometry x="360" y="480" width="78" height="78" as="geometry"/>
                </mxCell>
                <mxCell id="46" value="&lt;font style=&quot;font-size: 20px;&quot;&gt;データパイプライン運用環境&lt;/font&gt;" style="text;html=1;align=center;verticalAlign=middle;resizable=0;points=[];autosize=1;strokeColor=none;fillColor=none;fontSize=13;" parent="1" vertex="1">
                    <mxGeometry x="-322" y="80" width="280" height="40" as="geometry"/>
                </mxCell>
                <mxCell id="49" style="edgeStyle=none;html=1;entryX=0;entryY=0.5;entryDx=0;entryDy=0;fontSize=13;" parent="1" source="48" target="30" edge="1">
                    <mxGeometry relative="1" as="geometry"/>
                </mxCell>
                <mxCell id="50" value="特定ブランチへ&lt;br&gt;Push" style="edgeLabel;html=1;align=center;verticalAlign=middle;resizable=0;points=[];fontSize=13;" parent="49" vertex="1" connectable="0">
                    <mxGeometry x="0.2356" y="-3" relative="1" as="geometry">
                        <mxPoint x="-16" y="18" as="offset"/>
                    </mxGeometry>
                </mxCell>
                <mxCell id="56" style="edgeStyle=none;html=1;fontSize=13;" parent="1" source="48" target="55" edge="1">
                    <mxGeometry relative="1" as="geometry"/>
                </mxCell>
                <mxCell id="57" value="Assume Roleすることにより&lt;br&gt;ローカルからもdbt実行可能" style="edgeLabel;html=1;align=center;verticalAlign=middle;resizable=0;points=[];fontSize=13;" parent="56" vertex="1" connectable="0">
                    <mxGeometry x="-0.5723" y="1" relative="1" as="geometry">
                        <mxPoint x="100" y="29" as="offset"/>
                    </mxGeometry>
                </mxCell>
                <mxCell id="48" value="" style="sketch=0;outlineConnect=0;fontColor=#232F3E;gradientColor=none;fillColor=#232F3D;strokeColor=none;dashed=0;verticalLabelPosition=bottom;verticalAlign=top;align=center;html=1;fontSize=12;fontStyle=0;aspect=fixed;pointerEvents=1;shape=mxgraph.aws4.user;labelBackgroundColor=none;" parent="1" vertex="1">
                    <mxGeometry x="-440" y="481" width="78" height="78" as="geometry"/>
                </mxCell>
                <mxCell id="55" value="&lt;font style=&quot;font-size: 13px;&quot;&gt;ローカル環境用&lt;br&gt;IAM Role&lt;/font&gt;" style="sketch=0;outlineConnect=0;fontColor=#232F3E;gradientColor=none;fillColor=#BF0816;strokeColor=none;dashed=0;verticalLabelPosition=bottom;verticalAlign=top;align=center;html=1;fontSize=12;fontStyle=0;aspect=fixed;pointerEvents=1;shape=mxgraph.aws4.role;labelBackgroundColor=none;" parent="1" vertex="1">
                    <mxGeometry x="-440" y="660" width="78" height="44" as="geometry"/>
                </mxCell>
            </root>
        </mxGraphModel>
    </diagram>
</mxfile>